# xmcd CD database file
# 
# Track frame offsets:
# 	150
# 	18252
# 	28566
# 	55438
# 	70409
# 	91983
# 	105429
# 	122604
# 	142564
# 	164813
# 	182038
# 	210874
# 	233762
# 	266646
# 	286857
# 
# Disc length: 4137 seconds
# 
# Submitted via: Nero 6, 6, 0, 16
# 
# Revision: 0
# Processed by: cddbd v1.5.1PL0 Copyright (c) Steve Scherf et al.
#
DISCID=c610270f
DTITLE=Eric Burdon Animals and Jimmy Witherspoon - Winds of change and Black and wh
DTITLE=ite blues
DYEAR=1900
DGENRE=
TTITLE0=Winds of change and Black and white blues
TTITLE1=Winds of change and Black and white blues
TTITLE2=Winds of change and Black and white blues
TTITLE3=Winds of change and Black and white blues
TTITLE4=Winds of change and Black and white blues
TTITLE5=Winds of change and Black and white blues
TTITLE6=Winds of change and Black and white blues
TTITLE7=Winds of change and Black and white blues
TTITLE8=Winds of change and Black and white blues
TTITLE9=Winds of change and Black and white blues
TTITLE10=Winds of change and Black and white blues
TTITLE11=Winds of change and Black and white blues
TTITLE12=Winds of change and Black and white blues
TTITLE13=Winds of change and Black and white blues
TTITLE14=Winds of change and Black and white blues
EXTD=
EXTT0=
EXTT1=
EXTT2=
EXTT3=
EXTT4=
EXTT5=
EXTT6=
EXTT7=
EXTT8=
EXTT9=
EXTT10=
EXTT11=
EXTT12=
EXTT13=
EXTT14=
PLAYORDER=
